<?xml version="1.0" encoding="iso-8859-1"?>
<!-- Generator: Adobe Illustrator 16.0.0, SVG Export Plug-In . SVG Version: 6.00 Build 0)  -->
<!DOCTYPE svg PUBLIC "-//W3C//DTD SVG 1.1//EN" "http://www.w3.org/Graphics/SVG/1.1/DTD/svg11.dtd">
<svg version="1.1" id="Layer_1" xmlns="http://www.w3.org/2000/svg" xmlns:xlink="http://www.w3.org/1999/xlink" x="0px" y="0px"
	 width="16px" height="16px" viewBox="0 0 16 16" style="enable-background:new 0 0 16 16;" xml:space="preserve">
<path d="M12.035,5.411c-0.422-0.066-0.968-0.075-1.291-0.233c-0.557-0.271-1.15-1.942-1.43-2.52C8.868,1.74,8.512,0.732,8.022,0
	C7.993,0,7.962,0,7.931,0C7.365,1.011,6.636,2.626,6.04,3.918c-0.202,0.438-0.421,0.98-0.69,1.167
	C4.799,5.464,3.412,5.482,2.676,5.598C1.73,5.744,0.803,5.809,0,6.064c0.052,0.465,0.504,0.789,0.83,1.119
	C1.527,7.89,2.083,8.451,2.859,9.236c0.326,0.331,0.842,0.69,0.922,1.072c0.094,0.453-0.104,0.973-0.184,1.447
	c-0.229,1.357-0.475,2.838-0.602,4.197c0.493,0.047,0.85-0.344,1.245-0.559c0.801-0.436,1.52-0.82,2.397-1.308
	c0.417-0.231,0.895-0.547,1.292-0.56c0.746-0.023,1.936,0.877,2.536,1.213c0.867,0.484,1.571,0.914,2.444,1.26
	c0.082-0.908-0.167-1.832-0.323-2.8c-0.072-0.446-0.154-0.925-0.23-1.398c-0.072-0.455-0.264-1.017-0.184-1.446
	c0.114-0.629,1.469-1.72,1.891-2.146C14.793,7.472,15.496,6.942,16,6.111C14.761,5.71,13.453,5.634,12.035,5.411z"/>
</svg>
