<?xml version="1.0" encoding="utf-8"?>
<svg version="1.1" id="Layer_1" xmlns="http://www.w3.org/2000/svg" xmlns:xlink="http://www.w3.org/1999/xlink" x="0px" y="0px"
	 width="24px" height="24px" viewBox="0 0 24 24" enable-background="new 0 0 24 24" xml:space="preserve">
<path d="M23.707,22.293l-5.969-5.969C19.15,14.6,20,12.397,20,10c0-5.514-4.486-10-10-10C4.486,0,0,4.486,0,10
	c0,5.514,4.486,10,10,10c2.397,0,4.6-0.85,6.324-2.262l5.969,5.969C22.488,23.902,22.744,24,23,24s0.512-0.098,0.707-0.293
	C24.098,23.316,24.098,22.684,23.707,22.293z M1,10c0-4.971,4.029-9,9-9s9,4.029,9,9s-4.029,9-9,9S1,14.971,1,10z"/>
</svg>
